<svg xmlns="http://www.w3.org/2000/svg" width="1280" height="420" viewBox="0 0 1280 420" role="img" aria-labelledby="title desc">
  <title id="title">Echo_考研英语SKILL</title>
  <desc id="desc">真题证据链解析、翻译作文评分和模拟训练</desc>
  <defs>
    <linearGradient id="bg" x1="0" y1="0" x2="1" y2="1">
      <stop offset="0" stop-color="#101827"/>
      <stop offset="1" stop-color="#182738"/>
    </linearGradient>
    <pattern id="grid" width="32" height="32" patternUnits="userSpaceOnUse">
      <path d="M 32 0 L 0 0 0 32" fill="none" stroke="#FFFFFF" stroke-opacity="0.045"/>
    </pattern>
  </defs>
  <rect width="1280" height="420" rx="18" fill="url(#bg)"/>
  <rect width="1280" height="420" rx="18" fill="url(#grid)"/>
  <rect x="72" y="70" width="8" height="280" rx="4" fill="#25A879"/>
  <rect x="96" y="70" width="64" height="8" rx="4" fill="#E85D3F"/>
  <text x="112" y="155" fill="#FFFFFF" font-size="58" font-weight="700" font-family="Inter, PingFang SC, Microsoft YaHei, sans-serif">Echo_考研英语</text>
  <text x="112" y="214" fill="#9FE3CA" font-size="30" font-weight="600" font-family="Inter, PingFang SC, Microsoft YaHei, sans-serif">SKILL · for Codex</text>
  <text x="112" y="282" fill="#D5DEE8" font-size="25" font-family="Inter, PingFang SC, Microsoft YaHei, sans-serif">真题证据链解析 · 翻译与作文评分 · 外刊模拟训练</text>
  <g transform="translate(860 74)">
    <rect width="330" height="270" rx="14" fill="#FFFFFF" fill-opacity="0.07" stroke="#FFFFFF" stroke-opacity="0.13"/>
    <rect x="30" y="30" width="74" height="30" rx="6" fill="#25A879"/>
    <text x="48" y="52" fill="#FFFFFF" font-size="16" font-weight="700" font-family="Inter, PingFang SC, Microsoft YaHei, sans-serif">定位句</text>
    <rect x="30" y="84" width="262" height="12" rx="6" fill="#D5DEE8" fill-opacity="0.9"/>
    <rect x="30" y="112" width="216" height="12" rx="6" fill="#D5DEE8" fill-opacity="0.48"/>
    <rect x="30" y="156" width="48" height="48" rx="8" fill="#E85D3F"/>
    <text x="47" y="188" fill="#FFFFFF" font-size="24" font-weight="700" font-family="Inter, sans-serif">A</text>
    <rect x="94" y="164" width="198" height="10" rx="5" fill="#9FE3CA"/>
    <rect x="94" y="188" width="154" height="10" rx="5" fill="#D5DEE8" fill-opacity="0.45"/>
    <circle cx="278" cy="238" r="8" fill="#25A879"/>
    <rect x="30" y="233" width="220" height="10" rx="5" fill="#D5DEE8" fill-opacity="0.28"/>
  </g>
</svg>
